<?xml version="1.0" encoding="UTF-8" standalone="no"?><!-- Generator: Gravit.io --><svg xmlns="http://www.w3.org/2000/svg" xmlns:xlink="http://www.w3.org/1999/xlink" style="isolation:isolate" viewBox="0 0 1034.95 831.61" width="1034.95pt" height="831.61pt"><defs><clipPath id="_clipPath_h8lWqFwnEPMescORjxzqYa6hk5T4VfTm"><rect width="1034.95" height="831.61"/></clipPath></defs><g clip-path="url(#_clipPath_h8lWqFwnEPMescORjxzqYa6hk5T4VfTm)"><g opacity="0.1"><path d=" M 601.31 95.07 C 534.96 93.16 471.77 75.32 411.47 55.8 C 351.17 36.28 291.31 14.69 226.55 4.35 C 184.9 -2.3 137.27 -3.24 103.71 15.35 C 71.41 33.24 60.98 64.13 55.37 92.8 C 51.14 114.36 48.66 137.06 60.23 157.24 C 68.23 171.24 82.52 183.03 92.38 196.45 C 126.68 243.16 102.44 300.75 65.26 346.35 C 47.82 367.74 27.59 388.15 14.13 410.92 C 0.67 433.69 -5.53 459.8 6.22 483 C 17.89 506 45.7 523.31 75.83 535.48 C 137.02 560.18 209.13 567.25 279.44 571.26 C 435.08 580.12 591.56 576.26 747.62 572.44 C 805.37 571.02 863.38 569.58 920.2 562.14 C 951.75 558.01 984.32 551.46 1007.2 535.64 C 1036.28 515.56 1043.48 481.55 1024 456.37 C 991.32 414.13 901 403.64 878.11 358.31 C 865.53 333.36 878.45 305.56 896.72 282.42 C 935.92 232.78 1001.63 189.23 1005.09 132.49 C 1007.46 93.49 975.88 54.49 927.04 36.05 C 875.85 16.72 804.86 19.15 767.04 51.15 C 728.23 84.09 659.89 96.8 601.31 95.07 Z " fill="rgb(136,192,174)"/></g><g opacity="0.1"><ellipse vector-effect="non-scaling-stroke" cx="435.45" cy="802.29" rx="290.75" ry="29.32000000000005" fill="rgb(136,192,174)"/></g><mask id="_mask_wiPHU5jyka5GwKbXUvfeYGuFLViWnPzc" x="-200%" y="-200%" width="400%" height="400%"><rect x="-200%" y="-200%" width="400%" height="400%" style="fill:white;"/><path d=" M 169.47 799.11 C 169.47 799.11 156.57 726.02 108.69 689.8 C 88.6 674.6 73.9 653.93 67.48 630.39 C 64.459 619.236 62.523 607.816 61.7 596.29" fill="black" stroke="none"/></mask><path d=" M 169.47 799.11 C 169.47 799.11 156.57 726.02 108.69 689.8 C 88.6 674.6 73.9 653.93 67.48 630.39 C 64.459 619.236 62.523 607.816 61.7 596.29" fill="none" mask="url(#_mask_wiPHU5jyka5GwKbXUvfeYGuFLViWnPzc)" vector-effect="non-scaling-stroke" stroke-width="4" stroke="rgb(83,84,97)" stroke-linejoin="miter" stroke-linecap="butt" stroke-miterlimit="10"/><path d=" M 169.47 799.11 C 169.47 799.11 156.57 726.02 108.69 689.8 C 88.6 674.6 73.9 653.93 67.48 630.39 C 64.459 619.236 62.523 607.816 61.7 596.29" fill="none"/><path d=" M 31.68 573.29 C 35.68 581.12 62.41 596.97 62.41 596.97 C 62.41 596.97 65.77 567.36 61.74 559.52 C 57.71 551.68 47.74 548.41 39.42 552.21 C 31.1 556.01 27.65 565.45 31.68 573.29 Z " fill="rgb(136,192,174)"/><path d=" M 29.13 628.08 C 37.03 632.59 68.57 632.19 68.57 632.19 C 68.57 632.19 54.34 605.61 46.47 601.1 C 38.6 596.59 28.31 598.97 23.53 606.42 C 18.75 613.87 21.24 623.57 29.13 628.08 Z " fill="rgb(136,192,174)"/><path d=" M 68.34 701.8 C 77.56 701.93 104.57 686.55 104.57 686.55 C 104.57 686.55 78.08 670.39 68.85 670.25 C 59.62 670.11 52.03 677.07 51.85 685.78 C 51.67 694.49 59.11 701.64 68.34 701.8 Z " fill="rgb(136,192,174)"/><path d=" M 111.3 751.23 C 120.36 752.84 149.74 741.98 149.74 741.98 C 149.74 741.98 126.52 721.8 117.47 720.22 C 108.42 718.64 99.67 724.22 97.97 732.82 C 96.27 741.42 102.23 749.63 111.3 751.23 Z " fill="rgb(136,192,174)"/><path d=" M 100.91 619.25 C 97.76 627.44 72.91 645.8 72.91 645.8 C 72.91 645.8 66.33 616.68 69.48 608.49 C 72.63 600.3 82.22 596.07 90.89 599.04 C 99.56 602.01 104.06 611.07 100.91 619.25 Z " fill="rgb(136,192,174)"/><path d=" M 150.38 677.69 C 144.78 684.62 115.26 695.12 115.26 695.12 C 115.26 695.12 118.26 665.47 123.82 658.55 C 129.645 651.587 139.848 650.28 147.24 655.55 C 150.738 657.961 153.068 661.725 153.664 665.932 C 154.261 670.138 153.07 674.402 150.38 677.69 L 150.38 677.69 Z " fill="rgb(136,192,174)"/><path d=" M 190.2 740.72 C 185.92 748.44 158.71 763.5 158.71 763.5 C 158.71 763.5 156.32 733.81 160.6 726.09 C 164.88 718.37 174.97 715.39 183.15 719.43 C 191.33 723.47 194.47 733 190.2 740.72 Z " fill="rgb(136,192,174)"/><g opacity="0.25"><path d=" M 31.68 573.29 C 35.68 581.12 62.41 596.97 62.41 596.97 C 62.41 596.97 65.77 567.36 61.74 559.52 C 57.71 551.68 47.74 548.41 39.42 552.21 C 31.1 556.01 27.65 565.45 31.68 573.29 Z " fill="rgb(0,0,0)"/></g><g opacity="0.25"><path d=" M 29.13 628.08 C 37.03 632.59 68.57 632.19 68.57 632.19 C 68.57 632.19 54.34 605.61 46.47 601.1 C 38.6 596.59 28.31 598.97 23.53 606.42 C 18.75 613.87 21.24 623.57 29.13 628.08 Z " fill="rgb(0,0,0)"/></g><g opacity="0.25"><path d=" M 68.34 701.8 C 77.56 701.93 104.57 686.55 104.57 686.55 C 104.57 686.55 78.08 670.39 68.85 670.25 C 59.62 670.11 52.03 677.07 51.85 685.78 C 51.67 694.49 59.11 701.64 68.34 701.8 Z " fill="rgb(0,0,0)"/></g><g opacity="0.25"><path d=" M 111.3 751.23 C 120.36 752.84 149.74 741.98 149.74 741.98 C 149.74 741.98 126.52 721.8 117.47 720.22 C 108.42 718.64 99.67 724.22 97.97 732.82 C 96.27 741.42 102.23 749.63 111.3 751.23 Z " fill="rgb(0,0,0)"/></g><g opacity="0.25"><path d=" M 100.91 619.25 C 97.76 627.44 72.91 645.8 72.91 645.8 C 72.91 645.8 66.33 616.68 69.48 608.49 C 72.63 600.3 82.22 596.07 90.89 599.04 C 99.56 602.01 104.06 611.07 100.91 619.25 Z " fill="rgb(0,0,0)"/></g><g opacity="0.25"><path d=" M 150.38 677.69 C 144.78 684.62 115.26 695.12 115.26 695.12 C 115.26 695.12 118.26 665.47 123.82 658.55 C 129.645 651.587 139.848 650.28 147.24 655.55 C 150.738 657.961 153.068 661.725 153.664 665.932 C 154.261 670.138 153.07 674.402 150.38 677.69 L 150.38 677.69 Z " fill="rgb(0,0,0)"/></g><g opacity="0.25"><path d=" M 190.2 740.72 C 185.92 748.44 158.71 763.5 158.71 763.5 C 158.71 763.5 156.32 733.81 160.6 726.09 C 164.88 718.37 174.97 715.39 183.15 719.43 C 191.33 723.47 194.47 733 190.2 740.72 Z " fill="rgb(0,0,0)"/></g><mask id="_mask_IL8Embb5KZmPGqqAHdYNX0twRsNAc7Rd" x="-200%" y="-200%" width="400%" height="400%"><rect x="-200%" y="-200%" width="400%" height="400%" style="fill:white;"/><path d=" M 167.85 797.19 C 167.85 797.19 187.42 725.43 159.2 673.99 C 147.36 652.41 142.79 627.89 147.03 603.91 C 149.066 592.508 152.197 581.33 156.38 570.53" fill="black" stroke="none"/></mask><path d=" M 167.85 797.19 C 167.85 797.19 187.42 725.43 159.2 673.99 C 147.36 652.41 142.79 627.89 147.03 603.91 C 149.066 592.508 152.197 581.33 156.38 570.53" fill="none" mask="url(#_mask_IL8Embb5KZmPGqqAHdYNX0twRsNAc7Rd)" vector-effect="non-scaling-stroke" stroke-width="4" stroke="rgb(83,84,97)" stroke-linejoin="miter" stroke-linecap="butt" stroke-miterlimit="10"/><path d=" M 167.85 797.19 C 167.85 797.19 187.42 725.43 159.2 673.99 C 147.36 652.41 142.79 627.89 147.03 603.91 C 149.066 592.508 152.197 581.33 156.38 570.53" fill="none"/><path d=" M 138.8 538.02 C 139.12 546.72 156.73 571.43 156.73 571.43 C 156.73 571.43 172.51 545.64 172.19 536.93 C 171.87 528.22 164.14 521.41 154.92 521.71 C 145.7 522.01 138.47 529.31 138.8 538.02 Z " fill="rgb(136,192,174)"/><path d=" M 112.96 587.14 C 118.24 594.28 147.24 605.98 147.24 605.98 C 147.24 605.98 145.64 576.24 140.36 569.09 C 134.821 561.907 124.683 560.203 117.1 565.18 C 113.508 567.436 111.02 571.088 110.234 575.256 C 109.448 579.424 110.436 583.731 112.96 587.14 L 112.96 587.14 Z " fill="rgb(136,192,174)"/><path d=" M 117.16 669.51 C 125.54 673.16 156.84 669.44 156.84 669.44 C 156.84 669.44 139.55 644.52 131.17 640.87 C 122.79 637.22 112.87 640.67 109 648.58 C 105.13 656.49 108.79 665.86 117.16 669.51 Z " fill="rgb(136,192,174)"/><path d=" M 135.21 731.16 C 142.82 736.1 174.33 737.41 174.33 737.41 C 174.33 737.41 161.75 710.1 154.15 705.17 C 146.553 700.221 136.425 701.965 130.92 709.17 C 128.399 712.6 127.429 716.928 128.244 721.106 C 129.059 725.283 131.585 728.929 135.21 731.16 Z " fill="rgb(136,192,174)"/><path d=" M 182.37 606.53 C 175.97 612.81 145.37 620.1 145.37 620.1 C 145.37 620.1 151.86 590.95 158.25 584.67 C 164.807 578.385 175.093 578.194 181.88 584.23 C 185.06 587.031 186.922 591.036 187.015 595.273 C 187.108 599.509 185.424 603.592 182.37 606.53 Z " fill="rgb(136,192,174)"/><path d=" M 202.47 678.88 C 194.38 683.07 162.89 681.38 162.89 681.38 C 162.89 681.38 178.32 655.38 186.41 651.22 C 194.5 647.06 204.66 649.83 209.09 657.47 C 213.52 665.11 210.6 674.69 202.47 678.88 Z " fill="rgb(136,192,174)"/><path d=" M 211.86 751.74 C 204.63 757.16 173.29 760.52 173.29 760.52 C 173.29 760.52 183.85 732.45 191.08 727.03 C 198.369 721.621 208.593 722.732 214.55 729.58 C 217.296 732.81 218.567 737.04 218.056 741.249 C 217.545 745.457 215.299 749.261 211.86 751.74 Z " fill="rgb(136,192,174)"/><circle vector-effect="non-scaling-stroke" cx="689.3" cy="336.07" r="0.36000000000001364" fill="rgb(230,232,236)"/><path d=" M 499.55 214.39 L 238.04 384.05 L 408.7 691.85 C 410.312 694.76 413.068 696.863 416.3 697.65 L 570.93 735.37 C 576.39 736.691 582.031 734.02 584.47 728.96 L 661.17 569.61 L 745.23 457.24 L 545.75 221.24 C 534.266 207.66 514.48 204.726 499.55 214.39 L 499.55 214.39 Z " fill="rgb(220,223,237)"/><g opacity="0.1"><path d=" M 747.89 458.57 L 747.15 459.57 L 697.91 525.4 L 697.02 526.59 L 663.83 570.96 L 598.23 707.27 L 596.39 711.08 L 587.13 730.31 C 584.689 735.379 579.036 738.051 573.57 736.72 L 418.94 698.98 C 415.707 698.195 412.95 696.092 411.34 693.18 L 396.47 666.41 L 393.8 661.59 L 286.47 467.93 L 285.55 466.28 L 240.69 385.38 L 246.11 381.86 L 287.2 355.21 L 288.15 354.59 L 374.68 298.45 L 380.14 294.91 L 502.19 215.72 C 517.121 206.037 536.923 208.968 548.41 222.56 L 639.41 330.26 L 643.41 335.06 L 709.46 413.2 L 709.82 413.63 L 743.03 452.91 L 747.21 457.86 L 747.89 458.57 Z " fill="rgb(0,0,0)"/></g><g opacity="0.1"><path d=" M 707.26 412.3 L 699.2 468.3 L 696.77 485.2 L 695.38 521.2 L 695.27 524.01 L 688.04 712.11 C 687.899 715.643 686.198 718.931 683.397 721.088 C 680.595 723.244 676.981 724.047 673.53 723.28 L 595.59 705.88 L 594.75 705.69 L 394.86 661.08 L 391.19 660.26 L 281.3 635.72 L 283.82 466.6 L 283.9 460.95 L 284.66 409.76 L 285.5 353.26 L 372.03 297.12 L 377.49 293.58 C 457.75 301.81 564.49 317.64 636.8 328.93 L 640.8 333.73 L 706.8 411.87 L 707.26 412.3 Z " fill="rgb(0,0,0)"/></g><path d=" M 716.39 345.9 L 706.9 411.9 L 698.2 472.34 L 695.77 489.2 L 694.38 525.2 L 687.04 716.11 C 686.899 719.643 685.198 722.931 682.397 725.088 C 679.595 727.244 675.981 728.047 672.53 727.28 L 593.75 709.69 L 393.86 665.08 L 280.3 639.72 L 282.9 464.95 L 283.66 413.76 L 284.55 353.88 L 285.46 292.29 C 304.24 291.4 335.14 293.41 372.03 297.12 C 454.63 305.41 567.23 322.18 640.85 333.73 C 685.93 340.8 716.39 345.9 716.39 345.9 Z " fill="rgb(136,192,174)"/><g opacity="0.1"><path d=" M 740.47 451.58 L 698.2 472.31 L 482.47 578.11 L 283.66 413.8 L 243.47 380.53 L 238.05 384.05 L 282.91 464.95 L 280.31 639.72 L 393.87 665.08 L 408.71 691.85 C 410.32 694.762 413.077 696.865 416.31 697.65 L 570.94 735.37 C 576.397 736.685 582.032 734.016 584.47 728.96 L 593.73 709.73 L 672.51 727.32 C 675.961 728.087 679.575 727.284 682.377 725.128 C 685.178 722.971 686.879 719.683 687.02 716.15 L 694.36 525.24 L 744.49 458.24 L 744.63 456.55 L 740.47 451.58 Z " fill="rgb(0,0,0)"/></g><path d=" M 238.04 384.05 L 220.21 689.38 C 219.869 695.217 223.813 700.44 229.52 701.71 L 703.04 806.86 C 706.399 807.596 709.912 806.845 712.677 804.8 C 715.442 802.756 717.189 799.617 717.47 796.19 L 745.22 457.24 L 482.47 586.11 L 238.04 384.05 Z " fill="rgb(220,223,237)"/><g opacity="0.1"><path d=" M 223.47 696.37 L 469.47 544.6 C 476.99 540.039 486.703 541.56 492.47 548.2 L 712.65 804.99 C 713.45 805.91 713.84 805.25 712.65 804.99 L 223.47 696.37 C 222.07 696.06 222.25 697.1 223.47 696.37 Z " fill="rgb(0,0,0)"/></g><path d=" M 225.23 696.12 L 468.69 549.05 C 476.636 544.251 486.882 545.863 492.97 552.87 L 711.16 803.8 C 711.901 804.656 712.01 805.891 711.432 806.864 C 710.853 807.838 709.716 808.331 708.61 808.09 L 226.02 700.93 C 224.968 700.703 224.163 699.855 223.988 698.794 C 223.814 697.732 224.306 696.672 225.23 696.12 Z " fill="rgb(227,229,241)"/></g></svg>